<svg width="24" height="24" viewBox="0 0 24 24" fill="none" xmlns="http://www.w3.org/2000/svg">
<path d="M15.8647 8.57074C15.8647 9.51834 16.5923 10.2367 17.4918 10.2367L20.7462 10.2849C21.6457 10.2849 22.3733 9.51834 22.3733 8.57074C22.3733 7.62314 21.6457 6.85659 20.7462 6.85659V1.71308C20.7461 1.41878 20.6741 1.12947 20.5371 0.872977C20.4001 0.616483 20.2028 0.401444 19.9641 0.248551C19.7253 0.0961904 19.4534 0.0109502 19.1744 0.00098963C18.8953 -0.00897095 18.6185 0.0566815 18.3705 0.191663L16.7433 1.08034C15.9455 1.51557 15.6343 2.55022 16.0472 3.39069C16.3376 3.98004 16.902 4.31751 17.4918 4.31751V6.85659C16.5918 6.85659 15.8647 7.6226 15.8647 8.57074ZM19.5258 11.9776C17.0545 11.9776 15.0511 14.0882 15.0511 16.6915C15.0511 18.6435 16.1774 20.318 17.7822 21.0342L17.3916 21.463C16.8465 22.0608 16.8658 23.01 17.4328 23.5821C17.7105 23.8588 18.0664 23.9981 18.4173 23.9981C18.7907 23.9981 19.1658 23.8441 19.4439 23.5361C22.9835 19.6508 24 18.962 24 16.6902C24.0005 14.0399 21.9971 11.9776 19.5258 11.9776ZM19.5258 17.9771C18.8531 17.9771 18.3054 17.4002 18.3054 16.6915C18.3054 15.9828 18.8531 15.4059 19.5258 15.4059C20.1985 15.4059 20.7462 15.9828 20.7462 16.6915C20.7462 17.4002 20.197 17.9771 19.5258 17.9771ZM10.5764 15.4434C10.1354 15.4434 9.69667 15.6309 9.37581 15.9994L7.72881 17.8968V1.71575C7.72881 0.767617 7.00167 0 6.10164 0C5.20161 0 4.47447 0.767617 4.47447 1.71575V17.893L2.82696 16.0005C2.21931 15.3036 1.18962 15.2554 0.527566 15.895C-0.134998 16.5352 -0.179236 17.621 0.427444 18.32L4.8564 23.4673C5.47269 24.1776 6.63917 24.1776 7.25596 23.4673L11.6849 18.32C12.2921 17.621 12.2473 16.5357 11.5848 15.895C11.3645 15.5934 10.9679 15.4434 10.5764 15.4434Z" fill="#EDF6F9"/>
</svg>
