<svg width="24" height="24" viewBox="0 0 24 24" fill="none" xmlns="http://www.w3.org/2000/svg">
<path d="M15.8625 8.5716C15.8625 9.51927 16.5903 10.2377 17.4901 10.2377L20.7453 10.2859C21.6451 10.2859 22.3729 9.51927 22.3729 8.5716C22.3729 7.62393 21.6451 6.85733 20.7453 6.85733V1.71346C20.7452 1.41915 20.6732 1.12982 20.5362 0.873305C20.3992 0.616794 20.2018 0.40174 19.963 0.248837C19.7242 0.096465 19.4522 0.0112189 19.1731 0.00125764C18.894 -0.00870363 18.6171 0.0569534 18.369 0.191944L16.7414 1.08068C15.9433 1.51595 15.6321 2.55067 16.0451 3.39119C16.3355 3.98058 16.9001 4.31808 17.4901 4.31808V6.85733C16.5898 6.85733 15.8625 7.6234 15.8625 8.5716ZM19.5246 11.9787C17.0527 11.9787 15.0487 14.0894 15.0487 16.6929C15.0487 18.6451 16.1753 20.3197 17.7805 21.0359L17.3898 21.4647C16.8445 22.0626 16.8639 23.0118 17.4311 23.584C17.7088 23.8607 18.0648 24 18.4158 24C18.7893 24 19.1645 23.846 19.4427 23.538C22.9833 19.6525 24 18.9635 24 16.6916C24.0005 14.0412 21.9965 11.9787 19.5246 11.9787ZM19.5246 17.9786C18.8517 17.9786 18.3039 17.4017 18.3039 16.6929C18.3039 15.9842 18.8517 15.4072 19.5246 15.4072C20.1975 15.4072 20.7453 15.9842 20.7453 16.6929C20.7453 17.4017 20.196 17.9786 19.5246 17.9786ZM1.62039 8.55553C2.06147 8.55553 2.50031 8.36803 2.82126 7.99946L4.46921 6.10199V22.2804C4.46921 23.2286 5.19808 23.9962 6.05104 23.9962C6.90401 23.9962 7.67865 23.2286 7.67865 22.2804V6.10199L9.37238 7.99839C9.98273 8.69481 11.0102 8.74303 11.6714 8.10553C12.3341 7.46536 12.3784 6.37948 11.7715 5.68038L7.29718 0.532762C6.68072 -0.177587 5.51393 -0.177587 4.89697 0.532762L0.466822 5.68038C-0.186001 6.38055 -0.141496 7.46268 0.521245 8.10553C0.833543 8.40553 1.22773 8.55553 1.62039 8.55553V8.55553Z" fill="#EDF6F9"/>
</svg>
