<svg width="24" height="24" viewBox="0 0 24 24" fill="none" xmlns="http://www.w3.org/2000/svg">
<path d="M11.3904 18.273C11.9776 17.5739 11.9343 16.4886 11.2936 15.8479C10.6271 15.1825 9.63316 15.2843 9.06953 15.9536L7.47548 17.898V1.71587C7.47548 0.76767 6.77069 0 5.90164 0C5.03259 0 4.32781 0.76767 4.32781 1.71587V17.8943L2.7343 15.9984C2.14608 15.3052 1.15014 15.2516 0.510273 15.8945C-0.130573 16.5346 -0.173361 17.6205 0.413433 18.3196L4.69722 23.4672C5.29331 24.1776 6.42155 24.1776 7.01813 23.4672L11.3904 18.273ZM21.64 20.5712H19.144L22.753 16.6402C23.2033 16.1497 23.3378 15.4129 23.0942 14.7716C22.8507 14.1304 22.2744 13.7141 21.5957 13.7141H15.3004C14.4741 13.7141 13.7708 14.4802 13.7708 15.4284C13.7708 16.3766 14.4756 17.1427 15.3447 17.1427H17.8407L14.2317 21.0737C13.7813 21.5642 13.6469 22.301 13.8904 22.9422C14.134 23.5835 14.7102 23.9997 15.3004 23.9997H21.5515C22.5105 23.9997 23.2138 23.2337 23.2138 22.2855C23.2138 21.3373 22.5105 20.5712 21.64 20.5712V20.5712ZM23.8335 9.49811L19.8994 0.921418C19.3663 -0.246961 17.6174 -0.246961 17.0842 0.921418L13.1511 9.49811C12.7623 10.3504 13.0773 11.3859 13.8549 11.8118C14.6354 12.2362 15.5783 11.891 15.9663 11.0404L16.3182 10.2695H20.6674L21.0192 11.0404C21.3229 11.7063 22.1981 12.3191 23.1306 11.8118C23.9073 11.3892 24.2221 10.3499 23.8335 9.49811ZM17.6956 7.25349L18.4923 5.50172L19.2901 7.24974H17.6956V7.25349Z" fill="#EDF6F9"/>
</svg>
