<svg width="24" height="24" viewBox="0 0 24 24" fill="none" xmlns="http://www.w3.org/2000/svg">
<path d="M7.05799 0.532774C6.46174 -0.177591 5.33321 -0.177591 4.73647 0.532774L0.451589 5.68051C-0.179927 6.38016 -0.136881 7.46767 0.504228 8.10518C1.14475 8.74537 2.14095 8.69661 2.72883 7.99948L4.32274 6.10159V22.2803C4.32274 23.2339 5.02623 24 5.89698 24C6.76774 24 7.47122 23.2339 7.47122 22.2375V6.10159L9.06514 7.99804C9.62892 8.66715 10.6231 8.76894 11.2897 8.10373C11.9308 7.46355 11.9736 6.37764 11.3866 5.67853L7.05799 0.532774ZM21.6394 20.5714H19.1427L22.7527 16.6403C23.2031 16.1498 23.3376 15.4129 23.094 14.7717C22.8504 14.1304 22.2759 13.7077 21.6398 13.7077H15.2982C14.4717 13.7088 13.7682 14.4803 13.7682 15.4285C13.7682 16.3767 14.4731 17.1428 15.3424 17.1428H17.8391L14.2291 21.0739C13.7787 21.5644 13.6442 22.3012 13.8878 22.9425C14.1314 23.5837 14.7078 24 15.2982 24H21.5508C22.5101 24 23.2136 23.2339 23.2136 22.2857C23.2136 21.3375 22.5101 20.5714 21.6394 20.5714V20.5714ZM23.8335 9.49805L19.8984 0.921171C19.3651 -0.247235 17.6157 -0.247235 17.0825 0.921171L13.1483 9.49805C12.7594 10.3504 13.0745 11.3859 13.8523 11.8118C14.633 12.2362 15.5761 11.891 15.9643 11.0404L16.3162 10.2695H20.6665L21.0184 11.0404C21.3222 11.7063 22.1977 12.3192 23.1304 11.8118C23.9073 11.3891 24.2221 10.3498 23.8335 9.49805ZM17.6939 7.25338L18.4909 5.50158L19.2888 7.24963H17.6939V7.25338Z" fill="#EDF6F9"/>
</svg>
