<svg width="37" height="36" viewBox="0 0 37 36" fill="none" xmlns="http://www.w3.org/2000/svg">
<g clip-path="url(#clip0_87_265)">
<g filter="url(#filter0_ddd_87_265)">
<path d="M4.70001 4.5V34.875C4.69987 35.0704 4.7506 35.2624 4.84722 35.4322C4.94383 35.602 5.083 35.7437 5.25102 35.8434C5.41904 35.9431 5.61012 35.9973 5.80545 36.0007C6.00078 36.004 6.19363 35.9565 6.36501 35.8628L18.2 29.4053L30.035 35.8628C30.2064 35.9565 30.3992 36.004 30.5946 36.0007C30.7899 35.9973 30.981 35.9431 31.149 35.8434C31.317 35.7437 31.4562 35.602 31.5528 35.4322C31.6494 35.2624 31.7002 35.0704 31.7 34.875V4.5C31.7 3.30653 31.2259 2.16193 30.382 1.31802C29.5381 0.474106 28.3935 0 27.2 0L9.20001 0C8.00654 0 6.86195 0.474106 6.01803 1.31802C5.17412 2.16193 4.70001 3.30653 4.70001 4.5V4.5Z" fill="#EDF6F9"/>
</g>
</g>
<defs>
<filter id="filter0_ddd_87_265" x="2.70001" y="-2" width="33" height="42.0008" filterUnits="userSpaceOnUse" color-interpolation-filters="sRGB">
<feFlood flood-opacity="0" result="BackgroundImageFix"/>
<feColorMatrix in="SourceAlpha" type="matrix" values="0 0 0 0 0 0 0 0 0 0 0 0 0 0 0 0 0 0 127 0" result="hardAlpha"/>
<feOffset dx="2"/>
<feGaussianBlur stdDeviation="1"/>
<feComposite in2="hardAlpha" operator="out"/>
<feColorMatrix type="matrix" values="0 0 0 0 0 0 0 0 0 0 0 0 0 0 0 0 0 0 0.15 0"/>
<feBlend mode="normal" in2="BackgroundImageFix" result="effect1_dropShadow_87_265"/>
<feColorMatrix in="SourceAlpha" type="matrix" values="0 0 0 0 0 0 0 0 0 0 0 0 0 0 0 0 0 0 127 0" result="hardAlpha"/>
<feOffset dx="2" dy="2"/>
<feGaussianBlur stdDeviation="1"/>
<feComposite in2="hardAlpha" operator="out"/>
<feColorMatrix type="matrix" values="0 0 0 0 0 0 0 0 0 0 0 0 0 0 0 0 0 0 0.15 0"/>
<feBlend mode="normal" in2="effect1_dropShadow_87_265" result="effect2_dropShadow_87_265"/>
<feColorMatrix in="SourceAlpha" type="matrix" values="0 0 0 0 0 0 0 0 0 0 0 0 0 0 0 0 0 0 127 0" result="hardAlpha"/>
<feOffset dy="2"/>
<feGaussianBlur stdDeviation="1"/>
<feComposite in2="hardAlpha" operator="out"/>
<feColorMatrix type="matrix" values="0 0 0 0 0 0 0 0 0 0 0 0 0 0 0 0 0 0 0.15 0"/>
<feBlend mode="normal" in2="effect2_dropShadow_87_265" result="effect3_dropShadow_87_265"/>
<feBlend mode="normal" in="SourceGraphic" in2="effect3_dropShadow_87_265" result="shape"/>
</filter>
<clipPath id="clip0_87_265">
<rect width="36" height="36" fill="white" transform="translate(0.200012)"/>
</clipPath>
</defs>
</svg>
