<svg width="31" height="30" viewBox="0 0 31 30" fill="none" xmlns="http://www.w3.org/2000/svg">
<path d="M10.7189 13.9286C11.2872 13.9286 11.8323 13.7028 12.2342 13.3009C12.636 12.8991 12.8618 12.354 12.8618 11.7857C12.8618 11.2174 12.636 10.6723 12.2342 10.2705C11.8323 9.86862 11.2872 9.64286 10.7189 9.64286C10.1506 9.64286 9.60556 9.86862 9.2037 10.2705C8.80183 10.6723 8.57607 11.2174 8.57607 11.7857C8.57607 12.354 8.80183 12.8991 9.2037 13.3009C9.60556 13.7028 10.1506 13.9286 10.7189 13.9286ZM21.4332 11.7857C21.4332 12.354 21.2074 12.8991 20.8056 13.3009C20.4037 13.7028 19.8587 13.9286 19.2904 13.9286C18.722 13.9286 18.177 13.7028 17.7751 13.3009C17.3733 12.8991 17.1475 12.354 17.1475 11.7857C17.1475 11.2174 17.3733 10.6723 17.7751 10.2705C18.177 9.86862 18.722 9.64286 19.2904 9.64286C19.8587 9.64286 20.4037 9.86862 20.8056 10.2705C21.2074 10.6723 21.4332 11.2174 21.4332 11.7857ZM8.09714 18.3279C8.34996 18.2014 8.64249 18.1801 8.911 18.2684C9.17952 18.3567 9.40226 18.5475 9.53071 18.7993L9.53392 18.8057L9.57035 18.8679C9.60785 18.9289 9.67 19.0243 9.76 19.1454C9.94107 19.3864 10.2314 19.7196 10.6514 20.0561C11.4796 20.7182 12.8543 21.4286 15.0046 21.4286C17.155 21.4286 18.5296 20.7182 19.3579 20.0571C19.7789 19.7196 20.0693 19.3864 20.2493 19.1454C20.3312 19.0367 20.4067 18.9233 20.4754 18.8057L20.4796 18.7982C20.6089 18.5465 20.8325 18.3562 21.1016 18.2687C21.3707 18.1813 21.6634 18.2038 21.916 18.3314C22.1685 18.459 22.3603 18.6813 22.4495 18.9499C22.5387 19.2184 22.5181 19.5113 22.3921 19.7646V19.7657L22.39 19.7679V19.77L22.3857 19.7764L22.3771 19.7925C22.3438 19.8564 22.3081 19.9189 22.27 19.98C22.176 20.1351 22.074 20.2853 21.9646 20.43C21.598 20.9147 21.1718 21.3514 20.6961 21.7296C19.5154 22.6746 17.6757 23.5714 15.0046 23.5714C12.3336 23.5714 10.4939 22.6746 9.31321 21.7286C8.83801 21.3509 8.41217 20.915 8.04571 20.4311C7.89357 20.2278 7.7554 20.0145 7.63214 19.7925L7.62357 19.7764L7.62035 19.77L7.61928 19.7668L7.61821 19.7646C7.49133 19.5106 7.4705 19.2165 7.56031 18.9471C7.65011 18.6777 7.8432 18.455 8.09714 18.3279ZM15.0046 0C6.72035 0 0.00463867 6.71571 0.00463867 15C0.00463867 23.2843 6.72035 30 15.0046 30C23.2889 30 30.0046 23.2843 30.0046 15C30.0046 6.71571 23.2889 0 15.0046 0ZM2.1475 15C2.1475 7.89964 7.90428 2.14286 15.0046 2.14286C22.105 2.14286 27.8618 7.89964 27.8618 15C27.8618 22.1004 22.105 27.8571 15.0046 27.8571C7.90428 27.8571 2.1475 22.1004 2.1475 15Z" fill="#0091AD"/>
</svg>
