<svg width="26" height="36" viewBox="0 0 26 36" fill="none" xmlns="http://www.w3.org/2000/svg">
<path d="M23.4 0H1.8C1.32261 0 0.864774 0.189642 0.527208 0.527208C0.189643 0.864773 0 1.32261 0 1.8V18L9 10.8V16.2H19.8V19.8H9V25.2L0 18V34.2C0 34.6774 0.189643 35.1352 0.527208 35.4728C0.864774 35.8104 1.32261 36 1.8 36H23.4C23.8774 36 24.3352 35.8104 24.6728 35.4728C25.0104 35.1352 25.2 34.6774 25.2 34.2V1.8C25.2 1.32261 25.0104 0.864773 24.6728 0.527208C24.3352 0.189642 23.8774 0 23.4 0V0Z" fill="#EDF6F9"/>
</svg>
