<svg width="37" height="30" viewBox="0 0 37 30" fill="none" xmlns="http://www.w3.org/2000/svg">
<path d="M10.4241 11.8944C11.6609 11.7744 12.6175 11.9832 12.9595 12.1416C13.1111 12.2179 13.2775 12.265 13.4489 12.2801C13.6203 12.2952 13.7933 12.278 13.9574 12.2295C14.1216 12.1811 14.2737 12.1023 14.4046 11.998C14.5356 11.8936 14.6427 11.7658 14.7197 11.622C14.7967 11.4783 14.842 11.3216 14.8529 11.1612C14.8638 11.0008 14.84 10.84 14.7831 10.6884C14.7261 10.5367 14.6371 10.3973 14.5213 10.2783C14.4055 10.1594 14.2652 10.0634 14.1089 9.996C13.2064 9.5736 11.7226 9.3552 10.1566 9.5088C7.68807 9.7488 5.1475 11.7504 5.1475 15.0216C5.1475 18.3456 7.85778 20.5416 11.0618 20.5416C12.5532 20.5416 13.8904 19.8888 14.6541 19.2144C15.3278 18.6192 15.4332 17.8296 15.4332 17.3352V15.0216C15.4332 14.7033 15.2978 14.3981 15.0566 14.1731C14.8155 13.948 14.4885 13.8216 14.1475 13.8216H12.0724C11.7314 13.8216 11.4043 13.948 11.1632 14.1731C10.9221 14.3981 10.7866 14.7033 10.7866 15.0216C10.7866 15.3399 10.9221 15.6451 11.1632 15.8701C11.4043 16.0952 11.7314 16.2216 12.0724 16.2216H12.8618V17.3352C12.8617 17.3923 12.8566 17.4493 12.8464 17.5056C12.3457 17.8999 11.7166 18.1241 11.0618 18.1416C9.18207 18.1416 7.71892 16.9296 7.71892 15.0216C7.71892 13.0584 9.17692 12.0168 10.4241 11.8944ZM20.5761 10.704C20.5761 10.3857 20.4406 10.0805 20.1995 9.85547C19.9584 9.63043 19.6313 9.504 19.2904 9.504C18.9494 9.504 18.6223 9.63043 18.3812 9.85547C18.1401 10.0805 18.0046 10.3857 18.0046 10.704V19.344C18.0046 19.6623 18.1401 19.9675 18.3812 20.1925C18.6223 20.4176 18.9494 20.544 19.2904 20.544C19.6313 20.544 19.9584 20.4176 20.1995 20.1925C20.4406 19.9675 20.5761 19.6623 20.5761 19.344V10.704ZM24.4332 9.504C24.0922 9.504 23.7652 9.63043 23.5241 9.85547C23.283 10.0805 23.1475 10.3857 23.1475 10.704V19.344C23.1475 19.6623 23.283 19.9675 23.5241 20.1925C23.7652 20.4176 24.0922 20.544 24.4332 20.544C24.7742 20.544 25.1012 20.4176 25.3423 20.1925C25.5835 19.9675 25.7189 19.6623 25.7189 19.344V16.2144L28.2981 16.2C28.6391 16.1981 28.9653 16.0698 29.2049 15.8434C29.4446 15.617 29.5781 15.3111 29.5761 14.9928C29.574 14.6745 29.4366 14.3701 29.194 14.1464C28.9515 13.9227 28.6236 13.7981 28.2826 13.8L25.7189 13.8144V11.9016H29.5761C29.9171 11.9016 30.2441 11.7752 30.4852 11.5501C30.7263 11.3251 30.8618 11.0199 30.8618 10.7016C30.8618 10.3833 30.7263 10.0781 30.4852 9.85307C30.2441 9.62803 29.9171 9.5016 29.5761 9.5016H24.4332V9.504ZM6.43321 0.599998C4.72825 0.599998 3.09311 1.23214 1.88752 2.35736C0.681933 3.48258 0.00463867 5.0087 0.00463867 6.6V23.4C0.00463867 24.9913 0.681933 26.5174 1.88752 27.6426C3.09311 28.7679 4.72825 29.4 6.43321 29.4H29.5761C31.281 29.4 32.9162 28.7679 34.1218 27.6426C35.3273 26.5174 36.0046 24.9913 36.0046 23.4V6.6C36.0046 5.0087 35.3273 3.48258 34.1218 2.35736C32.9162 1.23214 31.281 0.599998 29.5761 0.599998H6.43321ZM2.57607 6.6C2.57607 5.64522 2.98244 4.72955 3.7058 4.05441C4.42915 3.37928 5.41023 3 6.43321 3H29.5761C30.599 3 31.5801 3.37928 32.3035 4.05441C33.0268 4.72955 33.4332 5.64522 33.4332 6.6V23.4C33.4332 24.3548 33.0268 25.2705 32.3035 25.9456C31.5801 26.6207 30.599 27 29.5761 27H6.43321C5.41023 27 4.42915 26.6207 3.7058 25.9456C2.98244 25.2705 2.57607 24.3548 2.57607 23.4V6.6Z" fill="#0091AD"/>
</svg>
