<svg width="36" height="36" viewBox="0 0 36 36" fill="none" xmlns="http://www.w3.org/2000/svg">
<path d="M35.5334 18.5832L19.3352 0.570113C18.6531 -0.190038 17.3428 -0.190038 16.6607 0.570113L0.462519 18.5832C0.229367 18.8418 0.0763267 19.1627 0.022008 19.5068C-0.0323106 19.8509 0.0144321 20.2034 0.156553 20.5214C0.444521 21.1716 1.08885 21.5896 1.79977 21.5896H5.39937V34.1987C5.39937 34.6764 5.58899 35.1346 5.92652 35.4724C6.26404 35.8102 6.72183 36 7.19917 36H12.5986C13.0759 36 13.5337 35.8102 13.8712 35.4724C14.2087 35.1346 14.3984 34.6764 14.3984 34.1987V26.9935H21.5976V34.1987C21.5976 34.6764 21.7872 35.1346 22.1247 35.4724C22.4622 35.8102 22.92 36 23.3974 36H28.7968C29.2741 36 29.7319 35.8102 30.0694 35.4724C30.4069 35.1346 30.5966 34.6764 30.5966 34.1987V21.5896H34.1962C34.5447 21.591 34.8862 21.491 35.1789 21.3016C35.4716 21.1122 35.703 20.8417 35.8447 20.523C35.9865 20.2043 36.0325 19.8512 35.9773 19.5067C35.922 19.1623 35.7678 18.8414 35.5334 18.5832Z" fill="#EDF6F9"/>
</svg>
