<svg width="37" height="30" viewBox="0 0 37 30" fill="none" xmlns="http://www.w3.org/2000/svg">
<path d="M32.4046 0.599998H3.60464C1.61924 0.599998 0.00463867 2.2146 0.00463867 4.2V25.8C0.00463867 27.7854 1.61924 29.4 3.60464 29.4H32.4046C34.39 29.4 36.0046 27.7854 36.0046 25.8V4.2C36.0046 2.2146 34.39 0.599998 32.4046 0.599998ZM8.10464 6C8.82072 6 9.50748 6.28446 10.0138 6.79081C10.5202 7.29716 10.8046 7.98391 10.8046 8.7C10.8046 9.41608 10.5202 10.1028 10.0138 10.6092C9.50748 11.1155 8.82072 11.4 8.10464 11.4C7.38855 11.4 6.7018 11.1155 6.19545 10.6092C5.6891 10.1028 5.40464 9.41608 5.40464 8.7C5.40464 7.98391 5.6891 7.29716 6.19545 6.79081C6.7018 6.28446 7.38855 6 8.10464 6ZM18.0046 24H5.40464L12.6046 15L15.3046 18.6L20.7046 11.4L30.6046 24H18.0046Z" fill="#0091AD"/>
</svg>
