<svg width="24" height="20" viewBox="0 0 24 20" fill="none" xmlns="http://www.w3.org/2000/svg">
<path d="M24 10.0036L20.5143 8.71216C20.2171 7.39788 19.4743 6.64359 19.4743 6.64359C19.0296 6.19803 18.5014 5.84455 17.92 5.60336C17.3385 5.36218 16.7152 5.23804 16.0857 5.23804C15.4562 5.23804 14.8329 5.36218 14.2515 5.60336C13.67 5.84455 13.1418 6.19803 12.6971 6.64359L11.0057 8.33502L3.42857 0.289307C2.28571 4.86073 3.42857 9.43216 6.22857 13.1122L0 19.1464C0 19.1464 10.16 21.4322 16.08 16.8036C19.2343 14.335 19.9429 12.895 20.3886 11.375L24 10.0036ZM17.9543 10.255C17.5086 10.7007 16.7771 10.7007 16.3314 10.255C16.2255 10.1493 16.1414 10.0237 16.0841 9.88545C16.0267 9.74719 15.9972 9.59898 15.9972 9.44931C15.9972 9.29963 16.0267 9.15142 16.0841 9.01316C16.1414 8.87491 16.2255 8.74932 16.3314 8.64359C16.7771 8.19788 17.5086 8.19788 17.9543 8.64359C18.4 9.08931 18.4 9.80931 17.9543 10.255Z" fill="#EDF6F9"/>
</svg>
