<svg width="37" height="36" viewBox="0 0 37 36" fill="none" xmlns="http://www.w3.org/2000/svg">
<path fill-rule="evenodd" clip-rule="evenodd" d="M0.200012 18C0.200012 8.05909 8.2591 0 18.2 0C28.1409 0 36.2 8.05909 36.2 18C36.2 27.9409 28.1409 36 18.2 36C8.2591 36 0.200012 27.9409 0.200012 18ZM6.59492 27.0687C4.63947 24.5684 3.47274 21.42 3.47274 18C3.47303 15.6616 4.03016 13.3569 5.09802 11.2765C6.16588 9.19615 7.71378 7.39999 9.61363 6.03663C11.5135 4.67328 13.7107 3.78192 16.0234 3.43632C18.3362 3.09072 20.6979 3.3008 22.9134 4.0492C25.1288 4.79759 27.1342 6.06277 28.7635 7.74006C30.3929 9.41735 31.5995 11.4585 32.2834 13.6947C32.9673 15.9309 33.1088 18.2978 32.6964 20.5995C32.2839 22.9013 31.3293 25.0717 29.9115 26.9313C28.5352 25.1671 26.7745 23.7404 24.7634 22.7598C22.7522 21.7792 20.5438 21.2706 18.3064 21.2727C16.0396 21.2708 13.803 21.7929 11.7714 22.7983C9.73985 23.8038 7.96821 25.2653 6.59492 27.0687ZM8.91856 29.4349C11.5404 31.5693 14.8192 32.7323 18.2 32.7273C21.6406 32.7321 24.9734 31.5273 27.6156 29.3236C26.5559 27.8441 25.1584 26.6388 23.5393 25.8078C21.9203 24.9768 20.1263 24.544 18.3064 24.5455C16.4635 24.5441 14.6475 24.988 13.0131 25.8393C11.3786 26.6906 9.9739 27.9241 8.91856 29.4349ZM22.8284 17.7192C24.0559 16.4917 24.7455 14.8269 24.7455 13.0909C24.7455 11.3549 24.0559 9.69007 22.8284 8.46256C21.6009 7.23505 19.936 6.54544 18.2001 6.54544C16.4641 6.54544 14.7992 7.23505 13.5717 8.46256C12.3442 9.69007 11.6546 11.3549 11.6546 13.0909C11.6546 14.8269 12.3442 16.4917 13.5717 17.7192C14.7992 18.9467 16.4641 19.6363 18.2001 19.6363C19.936 19.6363 21.6009 18.9467 22.8284 17.7192ZM20.5142 15.4051C21.128 14.7913 21.4728 13.9589 21.4728 13.0909C21.4728 12.2229 21.128 11.3905 20.5142 10.7767C19.9005 10.163 19.068 9.81817 18.2001 9.81817C17.3321 9.81817 16.4996 10.163 15.8859 10.7767C15.2721 11.3905 14.9273 12.2229 14.9273 13.0909C14.9273 13.9589 15.2721 14.7913 15.8859 15.4051C16.4996 16.0188 17.3321 16.3636 18.2001 16.3636C19.068 16.3636 19.9005 16.0188 20.5142 15.4051Z" fill="#EDF6F9"/>
</svg>
