<svg width="36" height="36" viewBox="0 0 36 36" fill="none" xmlns="http://www.w3.org/2000/svg">
<path d="M35.8968 11.7141C36.143 12.3188 35.9341 13.0008 35.4268 13.4437L32.1967 16.2141C32.2787 16.7977 32.3235 17.3953 32.3235 18C32.3235 18.6047 32.2787 19.2023 32.1967 19.7859L35.4268 22.5562C35.9341 22.9992 36.143 23.6812 35.8968 24.2859C35.5685 25.1227 35.1732 25.9313 34.7256 26.6977L34.375 27.2672C33.8826 28.0406 33.3306 28.7719 32.7263 29.468C32.2787 29.9672 31.5551 30.143 30.8987 29.9461L26.7435 28.6945C25.7439 29.4188 24.5727 30.0234 23.4612 30.4875L22.5287 34.5023C22.3795 35.1352 21.8573 35.5852 21.171 35.7539C20.1415 35.9156 19.0822 36 17.9334 36C16.9189 36 15.8596 35.9156 14.8301 35.7539C14.1438 35.5852 13.6216 35.1352 13.4724 34.5023L12.5399 30.4875C11.3612 30.0234 10.2572 29.4188 9.25756 28.6945L5.1054 29.9461C4.44594 30.143 3.7186 29.9672 3.27698 29.468C2.67198 28.7719 2.11995 28.0406 1.6276 27.2672L1.27848 26.6977C0.825665 25.9313 0.431783 25.1227 0.101311 24.2859C-0.140389 23.6812 0.0632657 22.9992 0.575013 22.5562L3.80216 19.7859C3.7201 19.2023 3.67758 18.6047 3.67758 18C3.67758 17.3953 3.7201 16.7977 3.80216 16.2141L0.575013 13.4437C0.0632657 13.0008 -0.140389 12.3258 0.101311 11.7141C0.431783 10.8773 0.826411 10.0688 1.27848 9.30234L1.62686 8.73281C2.11995 7.95937 2.67198 7.22812 3.27698 6.53555C3.7186 6.03281 4.44594 5.85844 5.1054 6.05672L9.25756 7.30547C10.2572 6.57844 11.3612 5.97375 12.5399 5.51461L13.4724 1.49977C13.6216 0.861328 14.1438 0.354375 14.8301 0.246797C15.8596 0.0844453 16.9189 0 18.0005 0C19.0822 0 20.1415 0.0844453 21.171 0.246797C21.8573 0.354375 22.3795 0.861328 22.5287 1.49977L23.4612 5.51461C24.5727 5.97375 25.7439 6.57844 26.7435 7.30547L30.8987 6.05672C31.5551 5.85844 32.2787 6.03281 32.7263 6.53555C33.3306 7.22812 33.8826 7.95937 34.375 8.73281L34.7256 9.30234C35.1732 10.0688 35.5685 10.8773 35.8968 11.7141V11.7141ZM18.0005 23.625C21.2978 23.625 23.9684 21.1078 23.9684 17.9367C23.9684 14.8922 21.2978 12.3117 18.0005 12.3117C14.7033 12.3117 12.0326 14.8922 12.0326 17.9367C12.0326 21.1078 14.7033 23.625 18.0005 23.625Z" fill="#EDF6F9"/>
</svg>
