<svg width="45" height="36" viewBox="0 0 45 36" fill="none" xmlns="http://www.w3.org/2000/svg">
<path d="M45 4.2643C43.7469 6.09999 42.2095 7.66482 40.3879 8.95881C40.4058 9.30585 40.4148 9.69809 40.4148 10.1355C40.4148 12.5661 40.055 14.9996 39.3354 17.436C38.6158 19.8725 37.5165 22.2046 36.0377 24.4323C34.5588 26.6601 32.7972 28.6337 30.7529 30.3532C28.7086 32.0726 26.2512 33.4436 23.3808 34.4662C20.5103 35.4887 17.434 36 14.1518 36C9.02936 36 4.31209 34.6381 0 31.9143C0.765345 31.9981 1.49938 32.0401 2.20209 32.0401C6.48148 32.0401 10.3037 30.742 13.6686 28.1457C11.6733 28.1097 9.88641 27.5048 8.30783 26.331C6.72926 25.1572 5.64292 23.6574 5.04882 21.8314C5.63605 21.9416 6.21562 21.9967 6.78755 21.9967C7.6108 21.9967 8.42086 21.8909 9.21774 21.6794C7.08839 21.2594 5.32191 20.215 3.91831 18.546C2.51475 16.8771 1.81297 14.9508 1.81297 12.7672V12.6546C3.11998 13.3673 4.5141 13.7464 5.99535 13.7919C4.73394 12.9638 3.73383 11.8838 2.99502 10.552C2.25617 9.2202 1.88674 7.77898 1.88674 6.22832C1.88674 4.59289 2.30286 3.06999 3.1351 1.65963C5.45073 4.4582 8.2566 6.6949 11.5527 8.36974C14.8489 10.0446 18.385 10.9748 22.1611 11.1602C22.0001 10.4992 21.9194 9.80939 21.9191 9.09078C21.9191 6.58168 22.8207 4.43928 24.6239 2.66357C26.4271 0.887855 28.6026 0 31.1503 0C33.8177 0 36.0644 0.956531 37.8906 2.86959C39.9771 2.46258 41.9307 1.72639 43.7514 0.661031C43.0499 2.83519 41.6983 4.5124 39.6964 5.69267C41.5363 5.47735 43.3042 5.00122 45 4.2643Z" fill="#EDF6F9"/>
</svg>
